# xmcd
#
# Track frame offsets:
#	150
#	22351
#	45969
#	61594
#	74362
#	117590
#	146330
#	166568
#	191121
#	221311
#	239592
#
# Disc length: 3392 seconds
#
# Revision: 0
# Processed by: cddbd v1.5.1PL0 Copyright (c) Steve Scherf et al.
# Submitted via: dBpowerAMP V4.0
#
DISCID=990d3e0b
DTITLE=Brothers Curtis - Its You thats Got to Go
DYEAR=2003
DGENRE=Blues
TTITLE0=Its You thats Got to Go
TTITLE1=That's What the Blues is All About
TTITLE2=Walkin' by Myslef
TTITLE3=Trouble in Mind
TTITLE4=Driftin' Blues
TTITLE5=Who's Been Talking?
TTITLE6=Can't Get No Satisfaction
TTITLE7=You Don't Know What Love Is
TTITLE8=Something's Wrong
TTITLE9=I Made My Girlfriend My Wife
TTITLE10=Prodigal Son
EXTD=
EXTT0=
EXTT1=
EXTT2=
EXTT3=
EXTT4=
EXTT5=
EXTT6=
EXTT7=
EXTT8=
EXTT9=
EXTT10=
PLAYORDER=
